<svg width="77" height="16" viewBox="0 0 77 16" fill="none" xmlns="http://www.w3.org/2000/svg">
<path d="M7.23977 2.21587C7.38766 1.91625 7.46161 1.76644 7.562 1.71858C7.64934 1.67693 7.75081 1.67693 7.83815 1.71858C7.93854 1.76644 8.01249 1.91625 8.16039 2.21587L9.5635 5.05843C9.60717 5.14689 9.629 5.19111 9.6609 5.22545C9.68915 5.25586 9.72303 5.28049 9.76066 5.29799C9.80316 5.31776 9.85196 5.32489 9.94957 5.33916L13.0881 5.7979C13.4186 5.84621 13.5839 5.87037 13.6604 5.95109C13.7269 6.02132 13.7582 6.11783 13.7455 6.21375C13.731 6.32399 13.6113 6.44052 13.3721 6.67357L11.1018 8.88478C11.0311 8.95371 10.9957 8.98817 10.9728 9.02918C10.9526 9.06549 10.9397 9.10538 10.9347 9.14663C10.929 9.19323 10.9374 9.24191 10.9541 9.33928L11.4897 12.4625C11.5462 12.7919 11.5745 12.9566 11.5214 13.0544C11.4752 13.1394 11.3931 13.1991 11.2979 13.2167C11.1886 13.237 11.0407 13.1592 10.7448 13.0036L7.93901 11.5281C7.85158 11.4821 7.80787 11.4591 7.76182 11.4501C7.72105 11.4421 7.67911 11.4421 7.63833 11.4501C7.59228 11.4591 7.54857 11.4821 7.46114 11.5281L4.65531 13.0036C4.35949 13.1592 4.21159 13.237 4.10222 13.2167C4.00707 13.1991 3.92496 13.1394 3.87877 13.0544C3.82568 12.9566 3.85393 12.7919 3.91043 12.4625L4.4461 9.33928C4.4628 9.24191 4.47115 9.19323 4.4655 9.14663C4.4605 9.10538 4.44753 9.06549 4.42731 9.02918C4.40448 8.98817 4.36909 8.95371 4.29832 8.88478L2.02809 6.67357C1.78882 6.44052 1.66918 6.32399 1.65462 6.21375C1.64195 6.11783 1.67325 6.02132 1.73978 5.95109C1.81626 5.87037 1.98151 5.84621 2.31202 5.7979L5.45058 5.33916C5.54819 5.32489 5.59699 5.31776 5.63949 5.29799C5.67712 5.28049 5.711 5.25586 5.73925 5.22545C5.77115 5.19111 5.79299 5.14689 5.83665 5.05843L7.23977 2.21587Z" stroke="#E20613" stroke-width="2" stroke-linecap="round" stroke-linejoin="round"/>
<path d="M38.0398 2.21587C38.1877 1.91625 38.2617 1.76644 38.362 1.71858C38.4494 1.67693 38.5509 1.67693 38.6382 1.71858C38.7386 1.76644 38.8125 1.91625 38.9604 2.21587L40.3636 5.05843C40.4072 5.14689 40.429 5.19111 40.4609 5.22545C40.4892 5.25586 40.5231 5.28049 40.5607 5.29799C40.6032 5.31776 40.652 5.32489 40.7496 5.33916L43.8882 5.7979C44.2187 5.84621 44.3839 5.87037 44.4604 5.95109C44.527 6.02132 44.5582 6.11783 44.5456 6.21375C44.531 6.32399 44.4114 6.44052 44.1721 6.67357L41.9019 8.88478C41.8311 8.95371 41.7957 8.98817 41.7729 9.02918C41.7527 9.06549 41.7397 9.10538 41.7347 9.14663C41.729 9.19323 41.7374 9.24191 41.7541 9.33928L42.2898 12.4625C42.3463 12.7919 42.3745 12.9566 42.3214 13.0544C42.2752 13.1394 42.1931 13.1991 42.098 13.2167C41.9886 13.237 41.8407 13.1592 41.5449 13.0036L38.7391 11.5281C38.6516 11.4821 38.6079 11.4591 38.5619 11.4501C38.5211 11.4421 38.4792 11.4421 38.4384 11.4501C38.3923 11.4591 38.3486 11.4821 38.2612 11.5281L35.4554 13.0036C35.1595 13.1592 35.0116 13.237 34.9023 13.2167C34.8071 13.1991 34.725 13.1394 34.6788 13.0544C34.6257 12.9566 34.654 12.7919 34.7105 12.4625L35.2461 9.33928C35.2628 9.24191 35.2712 9.19323 35.2655 9.14663C35.2605 9.10538 35.2476 9.06549 35.2274 9.02918C35.2045 8.98817 35.1691 8.95371 35.0984 8.88478L32.8281 6.67357C32.5889 6.44052 32.4692 6.32399 32.4547 6.21375C32.442 6.11783 32.4733 6.02132 32.5398 5.95109C32.6163 5.87037 32.7816 5.84621 33.1121 5.7979L36.2506 5.33916C36.3482 5.32489 36.397 5.31776 36.4395 5.29799C36.4772 5.28049 36.5111 5.25586 36.5393 5.22545C36.5712 5.19111 36.593 5.14689 36.6367 5.05843L38.0398 2.21587Z" stroke="#E20613" stroke-width="2" stroke-linecap="round" stroke-linejoin="round"/>
<g clip-path="url(#clip0_260_741)">
<path d="M22.6397 2.21587C22.7876 1.91625 22.8615 1.76644 22.9619 1.71858C23.0492 1.67693 23.1507 1.67693 23.2381 1.71858C23.3384 1.76644 23.4124 1.91625 23.5603 2.21587L24.9634 5.05843C25.0071 5.14689 25.0289 5.19111 25.0608 5.22545C25.0891 5.25586 25.1229 5.28049 25.1606 5.29799C25.2031 5.31776 25.2519 5.32489 25.3495 5.33916L28.488 5.7979C28.8185 5.84621 28.9838 5.87037 29.0603 5.95109C29.1268 6.02132 29.1581 6.11783 29.1454 6.21375C29.1309 6.32399 29.0112 6.44052 28.772 6.67357L26.5017 8.88478C26.431 8.95371 26.3956 8.98817 26.3727 9.02918C26.3525 9.06549 26.3396 9.10538 26.3346 9.14663C26.3289 9.19323 26.3373 9.24191 26.354 9.33928L26.8896 12.4625C26.9461 12.7919 26.9744 12.9566 26.9213 13.0544C26.8751 13.1394 26.793 13.1991 26.6978 13.2167C26.5885 13.237 26.4406 13.1592 26.1447 13.0036L23.3389 11.5281C23.2515 11.4821 23.2078 11.4591 23.1617 11.4501C23.1209 11.4421 23.079 11.4421 23.0382 11.4501C22.9922 11.4591 22.9485 11.4821 22.861 11.5281L20.0552 13.0036C19.7594 13.1592 19.6115 13.237 19.5021 13.2167C19.407 13.1991 19.3249 13.1394 19.2787 13.0544C19.2256 12.9566 19.2538 12.7919 19.3103 12.4625L19.846 9.33928C19.8627 9.24191 19.8711 9.19323 19.8654 9.14663C19.8604 9.10538 19.8474 9.06549 19.8272 9.02918C19.8044 8.98817 19.769 8.95371 19.6982 8.88478L17.428 6.67357C17.1887 6.44052 17.0691 6.32399 17.0545 6.21375C17.0419 6.11783 17.0731 6.02132 17.1397 5.95109C17.2162 5.87037 17.3814 5.84621 17.7119 5.7979L20.8505 5.33916C20.9481 5.32489 20.9969 5.31776 21.0394 5.29799C21.077 5.28049 21.1109 5.25586 21.1392 5.22545C21.1711 5.19111 21.1929 5.14689 21.2366 5.05843L22.6397 2.21587Z" stroke="#E20613" stroke-width="2" stroke-linecap="round" stroke-linejoin="round"/>
</g>
<g clip-path="url(#clip1_260_741)">
<path d="M53.4397 2.21587C53.5876 1.91625 53.6616 1.76644 53.7619 1.71858C53.8493 1.67693 53.9508 1.67693 54.0381 1.71858C54.1385 1.76644 54.2124 1.91625 54.3603 2.21587L55.7635 5.05843C55.8071 5.14689 55.8289 5.19111 55.8609 5.22545C55.8891 5.25586 55.923 5.28049 55.9606 5.29799C56.0031 5.31776 56.0519 5.32489 56.1495 5.33916L59.2881 5.7979C59.6186 5.84621 59.7838 5.87037 59.8603 5.95109C59.9269 6.02132 59.9581 6.11783 59.9455 6.21375C59.9309 6.32399 59.8113 6.44052 59.572 6.67357L57.3018 8.88478C57.231 8.95371 57.1956 8.98817 57.1728 9.02918C57.1526 9.06549 57.1396 9.10538 57.1346 9.14663C57.129 9.19323 57.1373 9.24191 57.154 9.33928L57.6897 12.4625C57.7462 12.7919 57.7744 12.9566 57.7213 13.0544C57.6751 13.1394 57.593 13.1991 57.4979 13.2167C57.3885 13.237 57.2406 13.1592 56.9448 13.0036L54.139 11.5281C54.0515 11.4821 54.0078 11.4591 53.9618 11.4501C53.921 11.4421 53.8791 11.4421 53.8383 11.4501C53.7922 11.4591 53.7485 11.4821 53.6611 11.5281L50.8553 13.0036C50.5594 13.1592 50.4115 13.237 50.3022 13.2167C50.207 13.1991 50.1249 13.1394 50.0787 13.0544C50.0256 12.9566 50.0539 12.7919 50.1104 12.4625L50.6461 9.33928C50.6628 9.24191 50.6711 9.19323 50.6655 9.14663C50.6604 9.10538 50.6475 9.06549 50.6273 9.02918C50.6044 8.98817 50.569 8.95371 50.4983 8.88478L48.228 6.67357C47.9888 6.44052 47.8691 6.32399 47.8546 6.21375C47.8419 6.11783 47.8732 6.02132 47.9397 5.95109C48.0162 5.87037 48.1815 5.84621 48.512 5.7979L51.6505 5.33916C51.7481 5.32489 51.7969 5.31776 51.8394 5.29799C51.8771 5.28049 51.911 5.25586 51.9392 5.22545C51.9711 5.19111 51.9929 5.14689 52.0366 5.05843L53.4397 2.21587Z" stroke="#E20613" stroke-width="2" stroke-linecap="round" stroke-linejoin="round"/>
</g>
<path d="M68.8399 2.21587C68.9878 1.91625 69.0617 1.76644 69.1621 1.71858C69.2494 1.67693 69.3509 1.67693 69.4383 1.71858C69.5386 1.76644 69.6126 1.91625 69.7605 2.21587L71.1636 5.05843C71.2073 5.14689 71.2291 5.19111 71.261 5.22545C71.2892 5.25586 71.3231 5.28049 71.3608 5.29799C71.4033 5.31776 71.4521 5.32489 71.5497 5.33916L74.6882 5.7979C75.0187 5.84621 75.184 5.87037 75.2605 5.95109C75.327 6.02132 75.3583 6.11783 75.3456 6.21375C75.3311 6.32399 75.2114 6.44052 74.9722 6.67357L72.7019 8.88478C72.6312 8.95371 72.5958 8.98817 72.5729 9.02918C72.5527 9.06549 72.5398 9.10538 72.5347 9.14663C72.5291 9.19323 72.5374 9.24191 72.5541 9.33928L73.0898 12.4625C73.1463 12.7919 73.1746 12.9566 73.1215 13.0544C73.0753 13.1394 72.9932 13.1991 72.898 13.2167C72.7887 13.237 72.6408 13.1592 72.3449 13.0036L69.5391 11.5281C69.4517 11.4821 69.408 11.4591 69.3619 11.4501C69.3211 11.4421 69.2792 11.4421 69.2384 11.4501C69.1924 11.4591 69.1487 11.4821 69.0612 11.5281L66.2554 13.0036C65.9596 13.1592 65.8117 13.237 65.7023 13.2167C65.6072 13.1991 65.5251 13.1394 65.4789 13.0544C65.4258 12.9566 65.454 12.7919 65.5105 12.4625L66.0462 9.33928C66.0629 9.24191 66.0712 9.19323 66.0656 9.14663C66.0606 9.10538 66.0476 9.06549 66.0274 9.02918C66.0046 8.98817 65.9692 8.95371 65.8984 8.88478L63.6282 6.67357C63.3889 6.44052 63.2693 6.32399 63.2547 6.21375C63.2421 6.11783 63.2733 6.02132 63.3399 5.95109C63.4164 5.87037 63.5816 5.84621 63.9121 5.7979L67.0507 5.33916C67.1483 5.32489 67.1971 5.31776 67.2396 5.29799C67.2772 5.28049 67.3111 5.25586 67.3393 5.22545C67.3713 5.19111 67.3931 5.14689 67.4367 5.05843L68.8399 2.21587Z" stroke="#E20613" stroke-width="2" stroke-linecap="round" stroke-linejoin="round"/>
<defs>
<clipPath id="clip0_260_741">
<rect width="15.4" height="15.4" fill="white" transform="translate(15.3999)"/>
</clipPath>
<clipPath id="clip1_260_741">
<rect width="15.4" height="15.4" fill="white" transform="translate(46.2)"/>
</clipPath>
</defs>
</svg>
