<svg width="18" height="19" viewBox="0 0 18 19" fill="none" xmlns="http://www.w3.org/2000/svg">
<path d="M17.9998 18.4329C17.9998 13.924 15.356 10.5493 11.3623 9.61343C12.9655 8.76263 14.0624 7.06128 14.0624 5.10451C14.0624 2.29698 11.7843 0 8.9999 0C6.21548 0 3.9374 2.29698 3.9374 5.10451C3.9374 7.06128 5.03427 8.76263 6.6375 9.61343C2.64375 10.5493 0 13.924 0 18.4329V19H18L17.9998 18.4329ZM5.0623 5.10445C5.0623 2.92081 6.83422 1.13439 8.9997 1.13439C11.1654 1.13439 12.9371 2.92101 12.9371 5.10445C12.9371 7.2881 11.1652 9.07452 8.9997 9.07452C6.83402 9.07472 5.0623 7.2881 5.0623 5.10445ZM1.15292 17.8657C1.406 13.4986 4.55615 10.4925 8.9998 10.4925C13.4436 10.4925 16.5935 13.4985 16.8467 17.8657H1.15292Z" fill="#2A2522"/>
</svg>
