<svg width="22" height="21" viewBox="0 0 22 21" fill="none" xmlns="http://www.w3.org/2000/svg">
<path d="M21.9587 3.02645C21.9541 3.02185 21.9587 3.01264 21.9541 3.00803C21.9267 2.94837 21.8855 2.90251 21.835 2.85685L21.8258 2.84764C21.812 2.83843 21.7937 2.83382 21.7799 2.82481C21.7525 2.80639 21.7249 2.78356 21.6882 2.77435L13.4366 0.0238095C13.3541 -0.00362668 13.2624 -0.00823138 13.1799 0.0146001L0.344196 3.22811C0.339591 3.22811 0.334987 3.23272 0.330382 3.23732C0.279924 3.25114 0.229462 3.27397 0.188213 3.3016L0.183609 3.3062C0.179004 3.31081 0.174399 3.31541 0.169794 3.31541C0.133149 3.34745 0.101109 3.3841 0.0734811 3.42535C0.0688764 3.43456 0.0642717 3.43916 0.059667 3.44818C0.0368355 3.49404 0.0184168 3.53989 0.0092094 3.59035C0.0092094 3.59956 0.0046047 3.61318 0.0046047 3.62239C0.0046047 3.64081 0 3.65443 0 3.67285L0.0046047 15.5827C0.0046047 15.7569 0.100918 15.9127 0.256711 15.9908L8.50833 20.1212C8.51294 20.1212 8.51754 20.1212 8.52215 20.1258C8.57279 20.1532 8.63707 20.1715 8.70576 20.1715C8.75622 20.1715 8.81128 20.1623 8.86155 20.144L21.6972 15.5599C21.8809 15.4956 22 15.3214 22 15.129V3.20978C22 3.20517 21.9954 3.20057 21.9954 3.19596C21.9954 3.13649 21.9816 3.07682 21.9587 3.02636L21.9587 3.02645ZM8.72423 5.94198L6.16632 5.08936L16.944 2.15998L19.9054 3.14556L8.72423 5.94198ZM13.2718 0.935994L15.3759 1.63743L4.5938 4.5668L2.09076 3.73241L13.2718 0.935994ZM0.912989 4.30987L4.43368 5.48352H4.43829L8.24773 6.74887V18.9706L0.913125 15.2985L0.912989 4.30987ZM21.0833 14.8076L9.16412 19.0664V6.78079L21.0833 3.80098V14.8076Z" fill="black"/>
</svg>
